<?xml version="1.0" encoding="UTF-8" ?>
<!DOCTYPE svg PUBLIC "-//W3C//DTD SVG 1.1//EN" "http://www.w3.org/Graphics/SVG/1.1/DTD/svg11.dtd">
<svg width="178pt" height="60pt" viewBox="0 0 178 60" version="1.1" xmlns="http://www.w3.org/2000/svg">
<g id="#ffd200ff">
<path fill="#ffd200" opacity="1.00" d=" M 5.15 0.00 L 12.17 0.00 C 12.17 0.75 12.17 2.25 12.17 3.00 C 12.83 3.00 14.14 3.00 14.79 3.00 C 14.80 2.25 14.80 0.75 14.81 0.00 L 20.09 0.00 C 20.09 0.75 20.09 2.25 20.09 3.00 C 20.75 3.00 22.05 3.00 22.71 3.00 C 22.71 2.25 22.72 0.75 22.72 0.00 L 27.99 0.00 C 27.99 2.44 27.99 4.89 27.99 7.33 C 20.95 7.33 13.92 7.33 6.88 7.33 C 6.89 4.89 6.90 2.45 6.90 0.01 L 5.15 0.00 Z" />
<path fill="#ffd200" opacity="1.00" d=" M 0.38 9.80 C 11.75 9.80 23.12 9.80 34.49 9.80 C 34.42 21.21 34.63 32.62 34.39 44.02 C 33.98 52.82 25.82 60.32 16.99 59.88 C 8.08 59.86 0.31 51.84 0.41 42.97 C 0.33 31.91 0.41 20.86 0.38 9.80 M 3.50 12.94 C 3.45 20.08 3.58 27.23 3.41 34.37 C 8.04 37.27 12.82 39.89 17.53 42.66 C 13.41 45.02 9.29 47.38 5.20 49.79 C 8.10 53.90 12.78 57.04 17.99 56.66 C 22.83 56.65 26.93 53.53 29.70 49.80 C 25.67 47.35 21.55 45.07 17.54 42.60 C 22.18 39.88 26.88 37.26 31.45 34.41 C 31.35 27.26 31.43 20.10 31.39 12.94 C 22.09 12.93 12.80 12.93 3.50 12.94 Z" />
<path fill="#ffd200" opacity="1.00" d=" M 16.10 16.39 C 18.15 16.24 19.13 17.35 19.16 19.37 C 19.59 19.36 20.47 19.36 20.91 19.36 C 20.94 20.00 21.00 21.28 21.03 21.92 C 20.47 21.96 19.36 22.04 18.80 22.08 C 19.25 25.10 17.40 29.88 21.03 31.37 C 24.06 31.87 24.43 28.50 24.62 26.33 C 25.56 26.90 26.50 27.46 27.44 28.02 C 26.83 30.22 26.12 32.83 23.69 33.65 C 21.48 34.78 19.26 33.45 17.45 32.24 C 15.62 33.40 13.44 34.77 11.23 33.67 C 8.72 32.87 7.99 30.18 7.42 27.92 C 8.36 27.44 9.31 26.96 10.26 26.48 C 10.37 28.66 10.98 31.97 13.94 31.36 C 17.41 29.71 15.61 25.09 16.06 22.06 C 15.51 22.03 14.41 21.96 13.86 21.93 C 13.87 21.30 13.89 20.05 13.90 19.43 C 14.42 19.41 15.48 19.38 16.00 19.36 C 16.03 18.62 16.08 17.13 16.10 16.39 Z" />
</g>
<g id="#ff0000ff">
<path fill="#ff0000" opacity="1.00" d=" M 3.50 12.94 C 12.80 12.93 22.09 12.93 31.39 12.94 C 31.43 20.10 31.35 27.26 31.45 34.41 C 26.88 37.26 22.18 39.88 17.54 42.60 C 21.55 45.07 25.67 47.35 29.70 49.80 C 26.93 53.53 22.83 56.65 17.99 56.66 C 12.78 57.04 8.10 53.90 5.20 49.79 C 9.29 47.38 13.41 45.02 17.53 42.66 C 12.82 39.89 8.04 37.27 3.41 34.37 C 3.58 27.23 3.45 20.08 3.50 12.94 M 16.10 16.39 C 16.08 17.13 16.03 18.62 16.00 19.36 C 15.48 19.38 14.42 19.41 13.90 19.43 C 13.89 20.05 13.87 21.30 13.86 21.93 C 14.41 21.96 15.51 22.03 16.06 22.06 C 15.61 25.09 17.41 29.71 13.94 31.36 C 10.98 31.97 10.37 28.66 10.26 26.48 C 9.31 26.96 8.36 27.44 7.42 27.92 C 7.99 30.18 8.72 32.87 11.23 33.67 C 13.44 34.77 15.62 33.40 17.45 32.24 C 19.26 33.45 21.48 34.78 23.69 33.65 C 26.12 32.83 26.83 30.22 27.44 28.02 C 26.50 27.46 25.56 26.90 24.62 26.33 C 24.43 28.50 24.06 31.87 21.03 31.37 C 17.40 29.88 19.25 25.10 18.80 22.08 C 19.36 22.04 20.47 21.96 21.03 21.92 C 21.00 21.28 20.94 20.00 20.91 19.36 C 20.47 19.36 19.59 19.36 19.16 19.37 C 19.13 17.35 18.15 16.24 16.10 16.39 Z" />
</g>
<g id="#000000f7">
<path fill="#000000" opacity="0.97" d=" M 72.04 21.99 C 73.67 21.58 74.55 22.93 75.49 23.96 C 74.56 25.03 73.71 26.46 72.04 26.00 C 71.03 24.76 71.04 23.23 72.04 21.99 Z" />
<path fill="#000000" opacity="0.97" d=" M 159.03 21.99 C 160.67 21.56 161.55 22.94 162.49 23.98 C 161.56 25.04 160.69 26.46 159.03 25.99 C 158.00 24.75 158.06 23.26 159.03 21.99 Z" />
<path fill="#000000" opacity="0.97" d=" M 50.62 22.92 C 51.94 22.97 53.27 23.03 54.60 23.09 C 56.21 28.65 58.36 34.03 60.72 39.31 C 63.12 34.03 64.94 28.52 66.64 22.99 C 67.48 22.99 69.17 22.99 70.01 22.99 C 66.39 28.87 63.39 35.20 61.82 41.95 C 61.08 42.13 59.58 42.49 58.83 42.67 C 56.44 35.96 54.05 29.19 50.62 22.92 Z" />
<path fill="#000000" opacity="0.97" d=" M 132.37 24.15 C 133.18 24.03 134.80 23.81 135.61 23.70 C 135.47 25.17 135.33 26.64 135.21 28.11 C 136.83 27.95 138.46 27.78 140.08 27.59 C 140.27 28.30 140.64 29.72 140.82 30.43 C 138.95 29.95 137.07 29.49 135.19 29.04 C 135.36 32.82 134.95 36.65 135.70 40.38 C 137.81 41.73 139.25 38.72 140.77 37.79 C 140.72 38.86 140.61 41.02 140.56 42.09 C 138.12 41.79 134.44 42.83 133.23 39.91 C 132.37 36.46 132.81 32.85 132.67 29.33 C 131.25 29.63 129.83 29.93 128.42 30.20 L 128.48 31.32 C 128.02 30.69 127.54 30.06 127.07 29.44 C 125.99 32.81 124.07 35.82 122.85 39.13 C 121.73 41.75 123.53 44.71 122.36 47.28 C 121.17 49.57 118.25 48.82 116.15 49.12 C 116.11 48.22 116.01 46.41 115.97 45.50 C 117.79 46.47 120.57 49.64 121.64 46.21 C 119.01 40.07 116.51 33.85 113.30 27.98 C 114.23 27.98 116.08 28.00 117.01 28.00 C 118.15 31.92 119.38 35.84 121.31 39.45 C 122.98 35.75 124.48 31.97 125.44 28.02 C 127.89 27.98 130.35 27.94 132.80 27.95 C 132.66 26.68 132.51 25.41 132.37 24.15 Z" />
<path fill="#000000" opacity="0.97" d=" M 79.48 28.50 C 80.21 28.34 81.67 28.00 82.40 27.83 C 82.28 28.42 82.04 29.60 81.92 30.20 C 84.62 27.82 89.62 26.73 91.89 30.20 C 93.02 33.99 92.30 38.09 92.66 42.00 C 91.96 42.00 90.55 42.00 89.84 42.00 C 89.97 38.02 90.44 33.92 89.18 30.06 C 88.53 29.78 87.23 29.22 86.57 28.94 C 85.16 29.64 83.21 29.97 82.76 31.73 C 81.80 35.06 82.46 38.59 82.48 42.00 C 81.75 42.00 80.30 42.00 79.57 42.00 C 79.93 37.51 79.93 32.99 79.48 28.50 Z" />
<path fill="#000000" opacity="0.97" d=" M 98.15 29.90 C 97.65 28.30 99.81 28.19 100.72 27.64 L 100.66 30.11 C 103.34 27.75 108.51 26.70 110.48 30.44 C 111.46 34.19 110.86 38.16 111.18 42.00 C 110.48 42.00 109.06 42.00 108.35 42.00 C 108.47 38.69 108.78 35.35 108.32 32.05 C 108.18 29.81 105.75 29.46 104.11 28.80 C 99.33 31.53 100.94 37.50 101.00 42.00 C 100.27 42.00 98.82 42.00 98.09 42.00 C 98.43 37.98 98.36 33.94 98.15 29.90 Z" />
<path fill="#000000" opacity="0.97" d=" M 143.68 32.92 C 142.71 30.92 144.08 28.76 146.09 28.25 C 148.49 27.79 150.95 28.01 153.37 27.99 C 153.42 29.28 153.48 30.57 153.54 31.87 C 151.54 30.58 149.40 29.51 147.09 28.92 C 146.63 29.49 145.70 30.64 145.24 31.22 C 147.59 33.68 151.23 34.10 153.69 36.34 C 155.92 39.40 151.86 42.28 148.98 42.05 C 146.17 42.37 144.00 40.41 142.00 38.78 C 142.66 38.12 143.32 37.47 143.99 36.82 C 145.37 38.47 146.60 40.95 149.12 40.78 C 150.58 41.13 151.98 39.66 151.89 38.24 C 149.88 35.49 145.79 35.58 143.68 32.92 Z" />
<path fill="#000000" opacity="0.97" d=" M 168.28 28.51 C 171.05 27.68 175.15 27.17 176.69 30.29 C 177.69 33.89 176.24 37.89 178.00 41.34 L 178.00 41.84 C 177.22 41.85 175.67 41.88 174.90 41.89 C 174.92 41.32 174.98 40.17 175.00 39.59 C 172.54 41.02 169.42 43.31 166.64 41.20 C 165.05 40.44 165.50 38.47 165.67 37.09 C 168.23 35.15 171.59 34.89 174.37 33.36 C 175.34 31.69 173.91 30.07 173.42 28.51 C 170.42 29.27 168.18 31.29 166.69 33.94 C 165.92 33.30 165.15 32.65 164.38 32.01 C 165.65 30.82 166.87 29.55 168.28 28.51 M 167.99 38.09 C 167.53 40.47 170.35 41.47 172.07 40.32 C 174.33 39.39 174.70 36.79 175.25 34.72 C 172.82 35.76 169.80 36.03 167.99 38.09 Z" />
<path fill="#000000" opacity="0.97" d=" M 71.68 29.27 C 72.38 29.14 73.77 28.89 74.47 28.76 C 74.24 33.17 74.21 37.59 74.47 42.00 C 73.75 42.00 72.30 42.00 71.58 42.00 C 72.00 37.76 71.67 33.51 71.68 29.27 Z" />
<path fill="#000000" opacity="0.97" d=" M 158.69 29.27 C 159.38 29.14 160.77 28.89 161.47 28.76 C 161.24 33.17 161.21 37.59 161.47 42.00 C 160.75 42.00 159.30 42.00 158.58 42.00 C 159.00 37.77 158.67 33.51 158.69 29.27 Z" />
</g>
</svg>
